<svg id="visual" viewBox="0 0 3840 2160" width="3840" height="2160" xmlns="http://www.w3.org/2000/svg" xmlns:xlink="http://www.w3.org/1999/xlink" version="1.1"><path d="M0 1629L64 1641.3C128 1653.7 256 1678.3 384 1708.3C512 1738.3 640 1773.7 768 1784.8C896 1796 1024 1783 1152 1766.5C1280 1750 1408 1730 1536 1699.8C1664 1669.7 1792 1629.3 1920 1632.3C2048 1635.3 2176 1681.7 2304 1704.8C2432 1728 2560 1728 2688 1711.3C2816 1694.7 2944 1661.3 3072 1662C3200 1662.7 3328 1697.3 3456 1700.5C3584 1703.7 3712 1675.3 3776 1661.2L3840 1647L3840 2161L3776 2161C3712 2161 3584 2161 3456 2161C3328 2161 3200 2161 3072 2161C2944 2161 2816 2161 2688 2161C2560 2161 2432 2161 2304 2161C2176 2161 2048 2161 1920 2161C1792 2161 1664 2161 1536 2161C1408 2161 1280 2161 1152 2161C1024 2161 896 2161 768 2161C640 2161 512 2161 384 2161C256 2161 128 2161 64 2161L0 2161Z" fill="#090040"></path><path d="M0 1770L64 1748.7C128 1727.3 256 1684.7 384 1686.2C512 1687.7 640 1733.3 768 1752.7C896 1772 1024 1765 1152 1746.7C1280 1728.3 1408 1698.7 1536 1690.8C1664 1683 1792 1697 1920 1695.7C2048 1694.3 2176 1677.7 2304 1684.5C2432 1691.3 2560 1721.7 2688 1732.8C2816 1744 2944 1736 3072 1747.8C3200 1759.7 3328 1791.3 3456 1788.5C3584 1785.7 3712 1748.3 3776 1729.7L3840 1711L3840 2161L3776 2161C3712 2161 3584 2161 3456 2161C3328 2161 3200 2161 3072 2161C2944 2161 2816 2161 2688 2161C2560 2161 2432 2161 2304 2161C2176 2161 2048 2161 1920 2161C1792 2161 1664 2161 1536 2161C1408 2161 1280 2161 1152 2161C1024 2161 896 2161 768 2161C640 2161 512 2161 384 2161C256 2161 128 2161 64 2161L0 2161Z" fill="#0b0447"></path><path d="M0 1818L64 1802.3C128 1786.7 256 1755.3 384 1736.8C512 1718.3 640 1712.7 768 1730C896 1747.3 1024 1787.7 1152 1784.2C1280 1780.7 1408 1733.3 1536 1718.8C1664 1704.3 1792 1722.7 1920 1740.5C2048 1758.3 2176 1775.7 2304 1788.8C2432 1802 2560 1811 2688 1793.2C2816 1775.3 2944 1730.7 3072 1718.7C3200 1706.7 3328 1727.3 3456 1753.7C3584 1780 3712 1812 3776 1828L3840 1844L3840 2161L3776 2161C3712 2161 3584 2161 3456 2161C3328 2161 3200 2161 3072 2161C2944 2161 2816 2161 2688 2161C2560 2161 2432 2161 2304 2161C2176 2161 2048 2161 1920 2161C1792 2161 1664 2161 1536 2161C1408 2161 1280 2161 1152 2161C1024 2161 896 2161 768 2161C640 2161 512 2161 384 2161C256 2161 128 2161 64 2161L0 2161Z" fill="#10074f"></path><path d="M0 1741L64 1742.3C128 1743.7 256 1746.3 384 1762.7C512 1779 640 1809 768 1813.2C896 1817.3 1024 1795.7 1152 1802.5C1280 1809.3 1408 1844.7 1536 1841.5C1664 1838.3 1792 1796.7 1920 1785.3C2048 1774 2176 1793 2304 1794.7C2432 1796.3 2560 1780.7 2688 1779C2816 1777.3 2944 1789.7 3072 1785.5C3200 1781.3 3328 1760.7 3456 1761.3C3584 1762 3712 1784 3776 1795L3840 1806L3840 2161L3776 2161C3712 2161 3584 2161 3456 2161C3328 2161 3200 2161 3072 2161C2944 2161 2816 2161 2688 2161C2560 2161 2432 2161 2304 2161C2176 2161 2048 2161 1920 2161C1792 2161 1664 2161 1536 2161C1408 2161 1280 2161 1152 2161C1024 2161 896 2161 768 2161C640 2161 512 2161 384 2161C256 2161 128 2161 64 2161L0 2161Z" fill="#150857"></path><path d="M0 1836L64 1836.2C128 1836.3 256 1836.7 384 1836.3C512 1836 640 1835 768 1825.3C896 1815.7 1024 1797.3 1152 1799.7C1280 1802 1408 1825 1536 1847.8C1664 1870.7 1792 1893.3 1920 1892.8C2048 1892.3 2176 1868.7 2304 1846.3C2432 1824 2560 1803 2688 1805.2C2816 1807.3 2944 1832.7 3072 1841.7C3200 1850.7 3328 1843.3 3456 1848.8C3584 1854.3 3712 1872.7 3776 1881.8L3840 1891L3840 2161L3776 2161C3712 2161 3584 2161 3456 2161C3328 2161 3200 2161 3072 2161C2944 2161 2816 2161 2688 2161C2560 2161 2432 2161 2304 2161C2176 2161 2048 2161 1920 2161C1792 2161 1664 2161 1536 2161C1408 2161 1280 2161 1152 2161C1024 2161 896 2161 768 2161C640 2161 512 2161 384 2161C256 2161 128 2161 64 2161L0 2161Z" fill="#1b0a5e"></path><path d="M0 1939L64 1927.5C128 1916 256 1893 384 1893.2C512 1893.3 640 1916.7 768 1927.7C896 1938.7 1024 1937.3 1152 1925.3C1280 1913.3 1408 1890.7 1536 1875.8C1664 1861 1792 1854 1920 1850.3C2048 1846.7 2176 1846.3 2304 1841.2C2432 1836 2560 1826 2688 1830.7C2816 1835.3 2944 1854.7 3072 1861.5C3200 1868.3 3328 1862.7 3456 1861.7C3584 1860.7 3712 1864.3 3776 1866.2L3840 1868L3840 2161L3776 2161C3712 2161 3584 2161 3456 2161C3328 2161 3200 2161 3072 2161C2944 2161 2816 2161 2688 2161C2560 2161 2432 2161 2304 2161C2176 2161 2048 2161 1920 2161C1792 2161 1664 2161 1536 2161C1408 2161 1280 2161 1152 2161C1024 2161 896 2161 768 2161C640 2161 512 2161 384 2161C256 2161 128 2161 64 2161L0 2161Z" fill="#210b66"></path><path d="M0 1973L64 1963C128 1953 256 1933 384 1922.2C512 1911.3 640 1909.7 768 1919.3C896 1929 1024 1950 1152 1946.7C1280 1943.3 1408 1915.7 1536 1911.8C1664 1908 1792 1928 1920 1943.8C2048 1959.7 2176 1971.3 2304 1969.8C2432 1968.3 2560 1953.7 2688 1936.5C2816 1919.3 2944 1899.7 3072 1898.8C3200 1898 3328 1916 3456 1923.2C3584 1930.3 3712 1926.7 3776 1924.8L3840 1923L3840 2161L3776 2161C3712 2161 3584 2161 3456 2161C3328 2161 3200 2161 3072 2161C2944 2161 2816 2161 2688 2161C2560 2161 2432 2161 2304 2161C2176 2161 2048 2161 1920 2161C1792 2161 1664 2161 1536 2161C1408 2161 1280 2161 1152 2161C1024 2161 896 2161 768 2161C640 2161 512 2161 384 2161C256 2161 128 2161 64 2161L0 2161Z" fill="#270d6e"></path><path d="M0 2008L64 1990.3C128 1972.7 256 1937.3 384 1938.5C512 1939.7 640 1977.3 768 1993.7C896 2010 1024 2005 1152 1991C1280 1977 1408 1954 1536 1952.7C1664 1951.3 1792 1971.7 1920 1975.8C2048 1980 2176 1968 2304 1966.2C2432 1964.3 2560 1972.7 2688 1978.7C2816 1984.7 2944 1988.3 3072 1977.3C3200 1966.3 3328 1940.7 3456 1938.5C3584 1936.3 3712 1957.7 3776 1968.3L3840 1979L3840 2161L3776 2161C3712 2161 3584 2161 3456 2161C3328 2161 3200 2161 3072 2161C2944 2161 2816 2161 2688 2161C2560 2161 2432 2161 2304 2161C2176 2161 2048 2161 1920 2161C1792 2161 1664 2161 1536 2161C1408 2161 1280 2161 1152 2161C1024 2161 896 2161 768 2161C640 2161 512 2161 384 2161C256 2161 128 2161 64 2161L0 2161Z" fill="#2d0e76"></path><path d="M0 2013L64 2003.8C128 1994.7 256 1976.3 384 1967.8C512 1959.3 640 1960.7 768 1966.5C896 1972.3 1024 1982.7 1152 1983.5C1280 1984.3 1408 1975.7 1536 1981.3C1664 1987 1792 2007 1920 2012C2048 2017 2176 2007 2304 1993.3C2432 1979.7 2560 1962.3 2688 1961.5C2816 1960.7 2944 1976.3 3072 1977C3200 1977.7 3328 1963.3 3456 1961.5C3584 1959.7 3712 1970.3 3776 1975.7L3840 1981L3840 2161L3776 2161C3712 2161 3584 2161 3456 2161C3328 2161 3200 2161 3072 2161C2944 2161 2816 2161 2688 2161C2560 2161 2432 2161 2304 2161C2176 2161 2048 2161 1920 2161C1792 2161 1664 2161 1536 2161C1408 2161 1280 2161 1152 2161C1024 2161 896 2161 768 2161C640 2161 512 2161 384 2161C256 2161 128 2161 64 2161L0 2161Z" fill="#33107e"></path><path d="M0 2044L64 2048.7C128 2053.3 256 2062.7 384 2064.7C512 2066.7 640 2061.3 768 2054.5C896 2047.7 1024 2039.3 1152 2036.5C1280 2033.7 1408 2036.3 1536 2035.8C1664 2035.3 1792 2031.7 1920 2031.7C2048 2031.7 2176 2035.3 2304 2031.8C2432 2028.3 2560 2017.7 2688 2022.7C2816 2027.7 2944 2048.3 3072 2057.7C3200 2067 3328 2065 3456 2058C3584 2051 3712 2039 3776 2033L3840 2027L3840 2161L3776 2161C3712 2161 3584 2161 3456 2161C3328 2161 3200 2161 3072 2161C2944 2161 2816 2161 2688 2161C2560 2161 2432 2161 2304 2161C2176 2161 2048 2161 1920 2161C1792 2161 1664 2161 1536 2161C1408 2161 1280 2161 1152 2161C1024 2161 896 2161 768 2161C640 2161 512 2161 384 2161C256 2161 128 2161 64 2161L0 2161Z" fill="#3a1186"></path><path d="M0 2056L64 2052.7C128 2049.3 256 2042.7 384 2046.5C512 2050.3 640 2064.7 768 2071C896 2077.3 1024 2075.7 1152 2071.8C1280 2068 1408 2062 1536 2055.5C1664 2049 1792 2042 1920 2046.7C2048 2051.3 2176 2067.7 2304 2070.2C2432 2072.7 2560 2061.3 2688 2065.2C2816 2069 2944 2088 3072 2095.7C3200 2103.3 3328 2099.7 3456 2093.2C3584 2086.7 3712 2077.3 3776 2072.7L3840 2068L3840 2161L3776 2161C3712 2161 3584 2161 3456 2161C3328 2161 3200 2161 3072 2161C2944 2161 2816 2161 2688 2161C2560 2161 2432 2161 2304 2161C2176 2161 2048 2161 1920 2161C1792 2161 1664 2161 1536 2161C1408 2161 1280 2161 1152 2161C1024 2161 896 2161 768 2161C640 2161 512 2161 384 2161C256 2161 128 2161 64 2161L0 2161Z" fill="#40128e"></path><path d="M0 2095L64 2101C128 2107 256 2119 384 2118C512 2117 640 2103 768 2095.8C896 2088.7 1024 2088.3 1152 2089.3C1280 2090.3 1408 2092.7 1536 2098.5C1664 2104.3 1792 2113.7 1920 2112.8C2048 2112 2176 2101 2304 2098.8C2432 2096.7 2560 2103.3 2688 2104.3C2816 2105.3 2944 2100.7 3072 2099C3200 2097.3 3328 2098.7 3456 2096.5C3584 2094.3 3712 2088.7 3776 2085.8L3840 2083L3840 2161L3776 2161C3712 2161 3584 2161 3456 2161C3328 2161 3200 2161 3072 2161C2944 2161 2816 2161 2688 2161C2560 2161 2432 2161 2304 2161C2176 2161 2048 2161 1920 2161C1792 2161 1664 2161 1536 2161C1408 2161 1280 2161 1152 2161C1024 2161 896 2161 768 2161C640 2161 512 2161 384 2161C256 2161 128 2161 64 2161L0 2161Z" fill="#471396"></path></svg>